<mxfile host="Electron" agent="Mozilla/5.0 (Windows NT 10.0; Win64; x64) AppleWebKit/537.36 (KHTML, like Gecko) draw.io/27.0.9 Chrome/134.0.6998.205 Electron/35.4.0 Safari/537.36" version="27.0.9">
  <diagram name="Page-1" id="58zfybNurvqxnXnJCSb3">
    <mxGraphModel dx="2670" dy="2406" grid="1" gridSize="10" guides="1" tooltips="1" connect="1" arrows="1" fold="1" page="1" pageScale="1" pageWidth="850" pageHeight="1100" math="0" shadow="0">
      <root>
        <mxCell id="0" />
        <mxCell id="1" parent="0" />
        <mxCell id="jpNTwZRYoK0DRIR-71cp-11" value="Person&amp;nbsp;" style="rounded=0;whiteSpace=wrap;html=1;" vertex="1" parent="1">
          <mxGeometry x="-160" y="-578" width="120" height="70" as="geometry" />
        </mxCell>
        <mxCell id="jpNTwZRYoK0DRIR-71cp-12" value="Department Branch&amp;nbsp;" style="rounded=0;whiteSpace=wrap;html=1;" vertex="1" parent="1">
          <mxGeometry x="-475" y="-538" width="120" height="60" as="geometry" />
        </mxCell>
        <mxCell id="jpNTwZRYoK0DRIR-71cp-13" value="License&amp;nbsp;" style="rounded=0;whiteSpace=wrap;html=1;" vertex="1" parent="1">
          <mxGeometry x="250" y="-578" width="120" height="60" as="geometry" />
        </mxCell>
        <mxCell id="jpNTwZRYoK0DRIR-71cp-14" value="" style="verticalLabelPosition=bottom;verticalAlign=top;html=1;shape=mxgraph.basic.frame;dx=10;whiteSpace=wrap;" vertex="1" parent="1">
          <mxGeometry x="-110" y="-293" width="100" height="60" as="geometry" />
        </mxCell>
        <mxCell id="jpNTwZRYoK0DRIR-71cp-15" value="Exam&amp;nbsp;" style="text;html=1;align=center;verticalAlign=middle;resizable=0;points=[];autosize=1;strokeColor=none;fillColor=none;" vertex="1" parent="1">
          <mxGeometry x="-90" y="-278" width="60" height="30" as="geometry" />
        </mxCell>
        <mxCell id="jpNTwZRYoK0DRIR-71cp-16" value="" style="verticalLabelPosition=bottom;verticalAlign=top;html=1;shape=mxgraph.basic.frame;dx=10;whiteSpace=wrap;" vertex="1" parent="1">
          <mxGeometry x="310" y="-293" width="100" height="60" as="geometry" />
        </mxCell>
        <mxCell id="jpNTwZRYoK0DRIR-71cp-17" value="Payement&amp;nbsp;" style="text;html=1;align=center;verticalAlign=middle;resizable=0;points=[];autosize=1;strokeColor=none;fillColor=none;" vertex="1" parent="1">
          <mxGeometry x="320" y="-278" width="80" height="30" as="geometry" />
        </mxCell>
        <mxCell id="jpNTwZRYoK0DRIR-71cp-20" value="Name&amp;nbsp;" style="ellipse;whiteSpace=wrap;html=1;" vertex="1" parent="1">
          <mxGeometry x="-140" y="-718" width="60" height="40" as="geometry" />
        </mxCell>
        <mxCell id="jpNTwZRYoK0DRIR-71cp-21" value="Id&amp;nbsp;" style="ellipse;whiteSpace=wrap;html=1;" vertex="1" parent="1">
          <mxGeometry x="-55" y="-708" width="60" height="40" as="geometry" />
        </mxCell>
        <mxCell id="jpNTwZRYoK0DRIR-71cp-22" value="Tel.No" style="ellipse;whiteSpace=wrap;html=1;" vertex="1" parent="1">
          <mxGeometry x="-10" y="-658" width="80" height="40" as="geometry" />
        </mxCell>
        <mxCell id="jpNTwZRYoK0DRIR-71cp-23" value="Age&amp;nbsp;" style="ellipse;whiteSpace=wrap;html=1;dashed=1;" vertex="1" parent="1">
          <mxGeometry x="-210" y="-708" width="60" height="40" as="geometry" />
        </mxCell>
        <mxCell id="jpNTwZRYoK0DRIR-71cp-24" value="Date of Birth&amp;nbsp;" style="ellipse;whiteSpace=wrap;html=1;dashed=1;" vertex="1" parent="1">
          <mxGeometry x="-300" y="-678" width="70" height="40" as="geometry" />
        </mxCell>
        <mxCell id="jpNTwZRYoK0DRIR-71cp-33" value="Dept_id" style="ellipse;whiteSpace=wrap;html=1;" vertex="1" parent="1">
          <mxGeometry x="-570" y="-648" width="60" height="40" as="geometry" />
        </mxCell>
        <mxCell id="jpNTwZRYoK0DRIR-71cp-34" value="Name" style="ellipse;whiteSpace=wrap;html=1;" vertex="1" parent="1">
          <mxGeometry x="-500" y="-678" width="60" height="40" as="geometry" />
        </mxCell>
        <mxCell id="jpNTwZRYoK0DRIR-71cp-35" value="Location&amp;nbsp;" style="ellipse;whiteSpace=wrap;html=1;" vertex="1" parent="1">
          <mxGeometry x="-355" y="-628" width="60" height="40" as="geometry" />
        </mxCell>
        <mxCell id="jpNTwZRYoK0DRIR-71cp-39" value="Issued Date&amp;nbsp;" style="ellipse;whiteSpace=wrap;html=1;" vertex="1" parent="1">
          <mxGeometry x="140" y="-668" width="60" height="40" as="geometry" />
        </mxCell>
        <mxCell id="jpNTwZRYoK0DRIR-71cp-40" value="Licence Number&amp;nbsp;" style="ellipse;whiteSpace=wrap;html=1;" vertex="1" parent="1">
          <mxGeometry x="210" y="-708" width="60" height="40" as="geometry" />
        </mxCell>
        <mxCell id="jpNTwZRYoK0DRIR-71cp-41" value="Type" style="ellipse;whiteSpace=wrap;html=1;" vertex="1" parent="1">
          <mxGeometry x="300" y="-718" width="60" height="40" as="geometry" />
        </mxCell>
        <mxCell id="jpNTwZRYoK0DRIR-71cp-46" value="Status&amp;nbsp;" style="ellipse;whiteSpace=wrap;html=1;" vertex="1" parent="1">
          <mxGeometry x="390" y="-688" width="60" height="40" as="geometry" />
        </mxCell>
        <mxCell id="jpNTwZRYoK0DRIR-71cp-49" value="Date&amp;nbsp;" style="ellipse;whiteSpace=wrap;html=1;gradientColor=none;" vertex="1" parent="1">
          <mxGeometry x="-280" y="-168" width="60" height="40" as="geometry" />
        </mxCell>
        <mxCell id="jpNTwZRYoK0DRIR-71cp-50" value="Exam Index Number&amp;nbsp;" style="ellipse;whiteSpace=wrap;html=1;" vertex="1" parent="1">
          <mxGeometry x="-120" y="-118" width="90" height="50" as="geometry" />
        </mxCell>
        <mxCell id="jpNTwZRYoK0DRIR-71cp-52" value="Results&amp;nbsp;" style="ellipse;whiteSpace=wrap;html=1;" vertex="1" parent="1">
          <mxGeometry x="-200" y="-128" width="60" height="40" as="geometry" />
        </mxCell>
        <mxCell id="jpNTwZRYoK0DRIR-71cp-53" value="Type" style="ellipse;whiteSpace=wrap;html=1;" vertex="1" parent="1">
          <mxGeometry x="100" y="-148" width="60" height="40" as="geometry" />
        </mxCell>
        <mxCell id="jpNTwZRYoK0DRIR-71cp-60" value="Attempt No." style="ellipse;whiteSpace=wrap;html=1;" vertex="1" parent="1">
          <mxGeometry x="-10" y="-118" width="80" height="50" as="geometry" />
        </mxCell>
        <mxCell id="jpNTwZRYoK0DRIR-71cp-64" value="Date&amp;nbsp;" style="ellipse;whiteSpace=wrap;html=1;" vertex="1" parent="1">
          <mxGeometry x="210" y="-173" width="70" height="45" as="geometry" />
        </mxCell>
        <mxCell id="jpNTwZRYoK0DRIR-71cp-65" value="Payment Type&amp;nbsp;" style="ellipse;whiteSpace=wrap;html=1;" vertex="1" parent="1">
          <mxGeometry x="250" y="-123" width="100" height="60" as="geometry" />
        </mxCell>
        <mxCell id="jpNTwZRYoK0DRIR-71cp-67" value="Payment ID&amp;nbsp;" style="ellipse;whiteSpace=wrap;html=1;" vertex="1" parent="1">
          <mxGeometry x="370" y="-108" width="110" height="50" as="geometry" />
        </mxCell>
        <mxCell id="jpNTwZRYoK0DRIR-71cp-68" value="Amount" style="ellipse;whiteSpace=wrap;html=1;" vertex="1" parent="1">
          <mxGeometry x="460" y="-178" width="80" height="50" as="geometry" />
        </mxCell>
        <mxCell id="jpNTwZRYoK0DRIR-71cp-74" value="takes&amp;nbsp;" style="html=1;whiteSpace=wrap;aspect=fixed;shape=isoRectangle;" vertex="1" parent="1">
          <mxGeometry x="-110" y="-388" width="70" height="42" as="geometry" />
        </mxCell>
        <mxCell id="jpNTwZRYoK0DRIR-71cp-78" value="" style="shape=link;html=1;rounded=0;exitX=0.379;exitY=0.01;exitDx=0;exitDy=0;exitPerimeter=0;entryX=0.525;entryY=0.942;entryDx=0;entryDy=0;entryPerimeter=0;" edge="1" parent="1" source="jpNTwZRYoK0DRIR-71cp-14" target="jpNTwZRYoK0DRIR-71cp-74">
          <mxGeometry width="100" relative="1" as="geometry">
            <mxPoint x="-30" y="-318" as="sourcePoint" />
            <mxPoint x="70" y="-318" as="targetPoint" />
          </mxGeometry>
        </mxCell>
        <mxCell id="jpNTwZRYoK0DRIR-71cp-79" value="" style="endArrow=none;html=1;rounded=0;exitX=0.482;exitY=0.039;exitDx=0;exitDy=0;exitPerimeter=0;entryX=0.708;entryY=1.009;entryDx=0;entryDy=0;entryPerimeter=0;" edge="1" parent="1" source="jpNTwZRYoK0DRIR-71cp-74" target="jpNTwZRYoK0DRIR-71cp-11">
          <mxGeometry width="50" height="50" relative="1" as="geometry">
            <mxPoint x="-80" y="-388" as="sourcePoint" />
            <mxPoint x="-30" y="-438" as="targetPoint" />
          </mxGeometry>
        </mxCell>
        <mxCell id="jpNTwZRYoK0DRIR-71cp-80" value="pay" style="html=1;whiteSpace=wrap;aspect=fixed;shape=isoRectangle;rotation=0;" vertex="1" parent="1">
          <mxGeometry x="290" y="-888" width="70" height="42" as="geometry" />
        </mxCell>
        <mxCell id="jpNTwZRYoK0DRIR-71cp-82" value="" style="endArrow=none;html=1;rounded=0;exitX=0.033;exitY=0.536;exitDx=0;exitDy=0;exitPerimeter=0;entryX=0.641;entryY=0.021;entryDx=0;entryDy=0;entryPerimeter=0;" edge="1" parent="1" source="jpNTwZRYoK0DRIR-71cp-80" target="jpNTwZRYoK0DRIR-71cp-11">
          <mxGeometry width="50" height="50" relative="1" as="geometry">
            <mxPoint x="77" y="-368" as="sourcePoint" />
            <mxPoint x="10" y="-458" as="targetPoint" />
            <Array as="points">
              <mxPoint x="-80" y="-868" />
            </Array>
          </mxGeometry>
        </mxCell>
        <mxCell id="jpNTwZRYoK0DRIR-71cp-84" value="" style="shape=link;html=1;rounded=0;exitX=0.961;exitY=0.53;exitDx=0;exitDy=0;exitPerimeter=0;entryX=0;entryY=0;entryDx=100;entryDy=14.999999999999998;entryPerimeter=0;" edge="1" parent="1" source="jpNTwZRYoK0DRIR-71cp-80" target="jpNTwZRYoK0DRIR-71cp-16">
          <mxGeometry width="100" relative="1" as="geometry">
            <mxPoint x="380" y="-268" as="sourcePoint" />
            <mxPoint x="480" y="-268" as="targetPoint" />
            <Array as="points">
              <mxPoint x="480" y="-866" />
              <mxPoint x="480" y="-278" />
            </Array>
          </mxGeometry>
        </mxCell>
        <mxCell id="jpNTwZRYoK0DRIR-71cp-85" value="Conducts" style="html=1;whiteSpace=wrap;aspect=fixed;shape=isoRectangle;rotation=0;" vertex="1" parent="1">
          <mxGeometry x="-450" y="-368" width="70" height="42" as="geometry" />
        </mxCell>
        <mxCell id="jpNTwZRYoK0DRIR-71cp-91" value="1" style="text;html=1;align=center;verticalAlign=middle;resizable=0;points=[];autosize=1;strokeColor=none;fillColor=none;" vertex="1" parent="1">
          <mxGeometry x="-410" y="-432" width="30" height="30" as="geometry" />
        </mxCell>
        <mxCell id="jpNTwZRYoK0DRIR-71cp-92" value="M" style="text;html=1;align=center;verticalAlign=middle;resizable=0;points=[];autosize=1;strokeColor=none;fillColor=none;" vertex="1" parent="1">
          <mxGeometry x="-415" y="-278" width="30" height="30" as="geometry" />
        </mxCell>
        <mxCell id="jpNTwZRYoK0DRIR-71cp-93" value="1" style="text;html=1;align=center;verticalAlign=middle;resizable=0;points=[];autosize=1;strokeColor=none;fillColor=none;rotation=90;" vertex="1" parent="1">
          <mxGeometry x="-85" y="-440" width="30" height="30" as="geometry" />
        </mxCell>
        <mxCell id="jpNTwZRYoK0DRIR-71cp-94" value="M" style="text;html=1;align=center;verticalAlign=middle;resizable=0;points=[];autosize=1;strokeColor=none;fillColor=none;" vertex="1" parent="1">
          <mxGeometry x="-110" y="-346" width="30" height="30" as="geometry" />
        </mxCell>
        <mxCell id="jpNTwZRYoK0DRIR-71cp-96" value="" style="endArrow=none;html=1;rounded=0;exitX=0;exitY=0;exitDx=75;exitDy=60;exitPerimeter=0;entryX=0.5;entryY=0;entryDx=0;entryDy=0;" edge="1" parent="1" source="jpNTwZRYoK0DRIR-71cp-14" target="jpNTwZRYoK0DRIR-71cp-60">
          <mxGeometry width="50" height="50" relative="1" as="geometry">
            <mxPoint x="50" y="-228" as="sourcePoint" />
            <mxPoint x="100" y="-278" as="targetPoint" />
          </mxGeometry>
        </mxCell>
        <mxCell id="jpNTwZRYoK0DRIR-71cp-97" value="" style="endArrow=none;html=1;rounded=0;exitX=1;exitY=1;exitDx=0;exitDy=0;exitPerimeter=0;entryX=0;entryY=0;entryDx=0;entryDy=0;" edge="1" parent="1" source="jpNTwZRYoK0DRIR-71cp-14" target="jpNTwZRYoK0DRIR-71cp-53">
          <mxGeometry width="50" height="50" relative="1" as="geometry">
            <mxPoint x="50" y="-228" as="sourcePoint" />
            <mxPoint x="100" y="-278" as="targetPoint" />
          </mxGeometry>
        </mxCell>
        <mxCell id="jpNTwZRYoK0DRIR-71cp-98" value="" style="endArrow=none;html=1;rounded=0;exitX=0.5;exitY=0;exitDx=0;exitDy=0;entryX=0.5;entryY=1;entryDx=0;entryDy=0;entryPerimeter=0;" edge="1" parent="1" source="jpNTwZRYoK0DRIR-71cp-50" target="jpNTwZRYoK0DRIR-71cp-14">
          <mxGeometry width="50" height="50" relative="1" as="geometry">
            <mxPoint x="50" y="-228" as="sourcePoint" />
            <mxPoint x="100" y="-278" as="targetPoint" />
          </mxGeometry>
        </mxCell>
        <mxCell id="jpNTwZRYoK0DRIR-71cp-99" value="" style="endArrow=none;html=1;rounded=0;exitX=0.5;exitY=0;exitDx=0;exitDy=0;entryX=0;entryY=0;entryDx=25;entryDy=60;entryPerimeter=0;" edge="1" parent="1" source="jpNTwZRYoK0DRIR-71cp-52" target="jpNTwZRYoK0DRIR-71cp-14">
          <mxGeometry width="50" height="50" relative="1" as="geometry">
            <mxPoint x="-140" y="-148" as="sourcePoint" />
            <mxPoint x="-90" y="-198" as="targetPoint" />
          </mxGeometry>
        </mxCell>
        <mxCell id="jpNTwZRYoK0DRIR-71cp-100" value="" style="endArrow=none;html=1;rounded=0;exitX=1;exitY=0;exitDx=0;exitDy=0;entryX=0;entryY=1;entryDx=0;entryDy=0;entryPerimeter=0;" edge="1" parent="1" source="jpNTwZRYoK0DRIR-71cp-49" target="jpNTwZRYoK0DRIR-71cp-14">
          <mxGeometry width="50" height="50" relative="1" as="geometry">
            <mxPoint x="-210" y="-183" as="sourcePoint" />
            <mxPoint x="-160" y="-233" as="targetPoint" />
          </mxGeometry>
        </mxCell>
        <mxCell id="jpNTwZRYoK0DRIR-71cp-101" value="" style="endArrow=none;html=1;rounded=0;entryX=0.5;entryY=1;entryDx=0;entryDy=0;exitX=0.511;exitY=0.066;exitDx=0;exitDy=0;exitPerimeter=0;" edge="1" parent="1" source="jpNTwZRYoK0DRIR-71cp-85" target="jpNTwZRYoK0DRIR-71cp-12">
          <mxGeometry width="50" height="50" relative="1" as="geometry">
            <mxPoint x="-420" y="-388" as="sourcePoint" />
            <mxPoint x="-420" y="-460" as="targetPoint" />
          </mxGeometry>
        </mxCell>
        <mxCell id="jpNTwZRYoK0DRIR-71cp-102" value="" style="shape=link;html=1;rounded=0;entryX=0;entryY=0;entryDx=0;entryDy=45;entryPerimeter=0;width=2.5;exitX=0.467;exitY=0.986;exitDx=0;exitDy=0;exitPerimeter=0;" edge="1" parent="1" source="jpNTwZRYoK0DRIR-71cp-85" target="jpNTwZRYoK0DRIR-71cp-14">
          <mxGeometry width="100" relative="1" as="geometry">
            <mxPoint x="-460" y="-248" as="sourcePoint" />
            <mxPoint x="130" y="-378" as="targetPoint" />
            <Array as="points">
              <mxPoint x="-417" y="-248" />
            </Array>
          </mxGeometry>
        </mxCell>
        <mxCell id="jpNTwZRYoK0DRIR-71cp-105" value="Requires" style="html=1;whiteSpace=wrap;aspect=fixed;shape=isoRectangle;rotation=0;" vertex="1" parent="1">
          <mxGeometry x="95.00088913245537" y="-284.0034665205268" width="70" height="42" as="geometry" />
        </mxCell>
        <mxCell id="jpNTwZRYoK0DRIR-71cp-106" value="" style="shape=link;html=1;rounded=0;width=-5;exitX=0.957;exitY=0.51;exitDx=0;exitDy=0;exitPerimeter=0;" edge="1" parent="1" source="jpNTwZRYoK0DRIR-71cp-105">
          <mxGeometry width="100" relative="1" as="geometry">
            <mxPoint x="210" y="-263.62" as="sourcePoint" />
            <mxPoint x="310" y="-263.62" as="targetPoint" />
          </mxGeometry>
        </mxCell>
        <mxCell id="jpNTwZRYoK0DRIR-71cp-107" value="" style="shape=link;html=1;rounded=0;width=-5;exitX=0.957;exitY=0.51;exitDx=0;exitDy=0;exitPerimeter=0;" edge="1" parent="1">
          <mxGeometry width="100" relative="1" as="geometry">
            <mxPoint x="-8" y="-263" as="sourcePoint" />
            <mxPoint x="100" y="-264" as="targetPoint" />
          </mxGeometry>
        </mxCell>
        <mxCell id="jpNTwZRYoK0DRIR-71cp-108" value="1" style="text;html=1;align=center;verticalAlign=middle;resizable=0;points=[];autosize=1;strokeColor=none;fillColor=none;" vertex="1" parent="1">
          <mxGeometry x="200" y="-293" width="30" height="30" as="geometry" />
        </mxCell>
        <mxCell id="jpNTwZRYoK0DRIR-71cp-109" value="1" style="text;html=1;align=center;verticalAlign=middle;resizable=0;points=[];autosize=1;strokeColor=none;fillColor=none;" vertex="1" parent="1">
          <mxGeometry x="40" y="-293" width="30" height="30" as="geometry" />
        </mxCell>
        <mxCell id="jpNTwZRYoK0DRIR-71cp-110" value="" style="endArrow=none;html=1;rounded=0;exitX=1;exitY=0;exitDx=0;exitDy=0;entryX=0;entryY=1;entryDx=0;entryDy=0;entryPerimeter=0;" edge="1" parent="1" source="jpNTwZRYoK0DRIR-71cp-64" target="jpNTwZRYoK0DRIR-71cp-16">
          <mxGeometry width="50" height="50" relative="1" as="geometry">
            <mxPoint x="130" y="-228" as="sourcePoint" />
            <mxPoint x="180" y="-278" as="targetPoint" />
          </mxGeometry>
        </mxCell>
        <mxCell id="jpNTwZRYoK0DRIR-71cp-111" value="" style="endArrow=none;html=1;rounded=0;exitX=0.5;exitY=0;exitDx=0;exitDy=0;entryX=0.349;entryY=1.023;entryDx=0;entryDy=0;entryPerimeter=0;" edge="1" parent="1" source="jpNTwZRYoK0DRIR-71cp-65" target="jpNTwZRYoK0DRIR-71cp-16">
          <mxGeometry width="50" height="50" relative="1" as="geometry">
            <mxPoint x="130" y="-228" as="sourcePoint" />
            <mxPoint x="180" y="-278" as="targetPoint" />
          </mxGeometry>
        </mxCell>
        <mxCell id="jpNTwZRYoK0DRIR-71cp-112" value="" style="endArrow=none;html=1;rounded=0;entryX=0;entryY=0;entryDx=75;entryDy=60;entryPerimeter=0;exitX=0.5;exitY=0;exitDx=0;exitDy=0;" edge="1" parent="1" source="jpNTwZRYoK0DRIR-71cp-67" target="jpNTwZRYoK0DRIR-71cp-16">
          <mxGeometry width="50" height="50" relative="1" as="geometry">
            <mxPoint x="420" y="-118" as="sourcePoint" />
            <mxPoint x="180" y="-278" as="targetPoint" />
          </mxGeometry>
        </mxCell>
        <mxCell id="jpNTwZRYoK0DRIR-71cp-113" value="" style="endArrow=none;html=1;rounded=0;exitX=0;exitY=0;exitDx=0;exitDy=0;entryX=1;entryY=1;entryDx=0;entryDy=0;entryPerimeter=0;" edge="1" parent="1" source="jpNTwZRYoK0DRIR-71cp-68" target="jpNTwZRYoK0DRIR-71cp-16">
          <mxGeometry width="50" height="50" relative="1" as="geometry">
            <mxPoint x="300" y="-228" as="sourcePoint" />
            <mxPoint x="350" y="-278" as="targetPoint" />
          </mxGeometry>
        </mxCell>
        <mxCell id="jpNTwZRYoK0DRIR-71cp-114" value="Examines&amp;nbsp;" style="html=1;whiteSpace=wrap;aspect=fixed;shape=isoRectangle;" vertex="1" parent="1">
          <mxGeometry x="-240" y="-332" width="90" height="54" as="geometry" />
        </mxCell>
        <mxCell id="jpNTwZRYoK0DRIR-71cp-116" value="" style="endArrow=none;html=1;rounded=0;exitX=0;exitY=0.5;exitDx=0;exitDy=0;exitPerimeter=0;entryX=0.506;entryY=0.968;entryDx=0;entryDy=0;entryPerimeter=0;" edge="1" parent="1" source="jpNTwZRYoK0DRIR-71cp-14" target="jpNTwZRYoK0DRIR-71cp-114">
          <mxGeometry width="50" height="50" relative="1" as="geometry">
            <mxPoint x="10" y="-208" as="sourcePoint" />
            <mxPoint x="-180" y="-285" as="targetPoint" />
            <Array as="points">
              <mxPoint x="-194" y="-263" />
            </Array>
          </mxGeometry>
        </mxCell>
        <mxCell id="jpNTwZRYoK0DRIR-71cp-117" value="" style="endArrow=none;html=1;rounded=0;exitX=0.506;exitY=0.007;exitDx=0;exitDy=0;exitPerimeter=0;entryX=0;entryY=0;entryDx=0;entryDy=0;entryPerimeter=0;" edge="1" parent="1" source="jpNTwZRYoK0DRIR-71cp-114" target="jpNTwZRYoK0DRIR-71cp-14">
          <mxGeometry width="50" height="50" relative="1" as="geometry">
            <mxPoint x="10" y="-208" as="sourcePoint" />
            <mxPoint x="-100" y="-298" as="targetPoint" />
            <Array as="points">
              <mxPoint x="-194" y="-348" />
              <mxPoint x="-110" y="-348" />
            </Array>
          </mxGeometry>
        </mxCell>
        <mxCell id="jpNTwZRYoK0DRIR-71cp-120" value="Marker" style="text;html=1;align=center;verticalAlign=middle;resizable=0;points=[];autosize=1;strokeColor=none;fillColor=none;" vertex="1" parent="1">
          <mxGeometry x="-180" y="-284" width="60" height="30" as="geometry" />
        </mxCell>
        <mxCell id="jpNTwZRYoK0DRIR-71cp-121" value="Supervisee" style="text;html=1;align=center;verticalAlign=middle;resizable=0;points=[];autosize=1;strokeColor=none;fillColor=none;" vertex="1" parent="1">
          <mxGeometry x="-200" y="-370" width="80" height="30" as="geometry" />
        </mxCell>
        <mxCell id="jpNTwZRYoK0DRIR-71cp-122" value="" style="endArrow=none;html=1;rounded=0;exitX=0.116;exitY=0.008;exitDx=0;exitDy=0;exitPerimeter=0;entryX=0.5;entryY=1;entryDx=0;entryDy=0;" edge="1" parent="1" source="jpNTwZRYoK0DRIR-71cp-12" target="jpNTwZRYoK0DRIR-71cp-33">
          <mxGeometry width="50" height="50" relative="1" as="geometry">
            <mxPoint x="-340" y="-618" as="sourcePoint" />
            <mxPoint x="-290" y="-668" as="targetPoint" />
          </mxGeometry>
        </mxCell>
        <mxCell id="jpNTwZRYoK0DRIR-71cp-124" value="" style="endArrow=none;html=1;rounded=0;entryX=0.5;entryY=1;entryDx=0;entryDy=0;" edge="1" parent="1" target="jpNTwZRYoK0DRIR-71cp-34">
          <mxGeometry width="50" height="50" relative="1" as="geometry">
            <mxPoint x="-430" y="-539" as="sourcePoint" />
            <mxPoint x="-290" y="-668" as="targetPoint" />
          </mxGeometry>
        </mxCell>
        <mxCell id="jpNTwZRYoK0DRIR-71cp-125" value="" style="endArrow=none;html=1;rounded=0;exitX=0.703;exitY=-0.002;exitDx=0;exitDy=0;exitPerimeter=0;entryX=0.369;entryY=0.976;entryDx=0;entryDy=0;entryPerimeter=0;" edge="1" parent="1" source="jpNTwZRYoK0DRIR-71cp-12" target="jpNTwZRYoK0DRIR-71cp-35">
          <mxGeometry width="50" height="50" relative="1" as="geometry">
            <mxPoint x="-340" y="-618" as="sourcePoint" />
            <mxPoint x="-290" y="-668" as="targetPoint" />
          </mxGeometry>
        </mxCell>
        <mxCell id="jpNTwZRYoK0DRIR-71cp-126" value="" style="endArrow=none;html=1;rounded=0;exitX=0;exitY=0;exitDx=0;exitDy=0;entryX=1;entryY=1;entryDx=0;entryDy=0;" edge="1" parent="1" source="jpNTwZRYoK0DRIR-71cp-11" target="jpNTwZRYoK0DRIR-71cp-24">
          <mxGeometry width="50" height="50" relative="1" as="geometry">
            <mxPoint x="-40" y="-378" as="sourcePoint" />
            <mxPoint x="10" y="-428" as="targetPoint" />
          </mxGeometry>
        </mxCell>
        <mxCell id="jpNTwZRYoK0DRIR-71cp-127" value="" style="endArrow=none;html=1;rounded=0;entryX=0.5;entryY=1;entryDx=0;entryDy=0;exitX=0.162;exitY=-0.006;exitDx=0;exitDy=0;exitPerimeter=0;" edge="1" parent="1" source="jpNTwZRYoK0DRIR-71cp-11" target="jpNTwZRYoK0DRIR-71cp-23">
          <mxGeometry width="50" height="50" relative="1" as="geometry">
            <mxPoint x="-150" y="-588" as="sourcePoint" />
            <mxPoint x="10" y="-428" as="targetPoint" />
          </mxGeometry>
        </mxCell>
        <mxCell id="jpNTwZRYoK0DRIR-71cp-128" value="" style="endArrow=none;html=1;rounded=0;entryX=0.5;entryY=1;entryDx=0;entryDy=0;" edge="1" parent="1" target="jpNTwZRYoK0DRIR-71cp-20">
          <mxGeometry width="50" height="50" relative="1" as="geometry">
            <mxPoint x="-112" y="-578" as="sourcePoint" />
            <mxPoint x="10" y="-428" as="targetPoint" />
          </mxGeometry>
        </mxCell>
        <mxCell id="jpNTwZRYoK0DRIR-71cp-129" value="" style="endArrow=none;html=1;rounded=0;exitX=0.75;exitY=0;exitDx=0;exitDy=0;entryX=0.5;entryY=1;entryDx=0;entryDy=0;" edge="1" parent="1" source="jpNTwZRYoK0DRIR-71cp-11" target="jpNTwZRYoK0DRIR-71cp-21">
          <mxGeometry width="50" height="50" relative="1" as="geometry">
            <mxPoint x="-40" y="-378" as="sourcePoint" />
            <mxPoint x="10" y="-428" as="targetPoint" />
          </mxGeometry>
        </mxCell>
        <mxCell id="jpNTwZRYoK0DRIR-71cp-131" value="" style="endArrow=none;html=1;rounded=0;exitX=1;exitY=0;exitDx=0;exitDy=0;entryX=0.37;entryY=1.051;entryDx=0;entryDy=0;entryPerimeter=0;" edge="1" parent="1" source="jpNTwZRYoK0DRIR-71cp-11" target="jpNTwZRYoK0DRIR-71cp-22">
          <mxGeometry width="50" height="50" relative="1" as="geometry">
            <mxPoint x="-40" y="-378" as="sourcePoint" />
            <mxPoint x="10" y="-428" as="targetPoint" />
          </mxGeometry>
        </mxCell>
        <mxCell id="jpNTwZRYoK0DRIR-71cp-132" value="Holds&amp;nbsp;" style="html=1;whiteSpace=wrap;aspect=fixed;shape=isoRectangle;" vertex="1" parent="1">
          <mxGeometry x="62.5" y="-571.5" width="95" height="57" as="geometry" />
        </mxCell>
        <mxCell id="jpNTwZRYoK0DRIR-71cp-133" value="" style="endArrow=none;html=1;rounded=0;exitX=1;exitY=0.5;exitDx=0;exitDy=0;entryX=0.062;entryY=0.493;entryDx=0;entryDy=0;entryPerimeter=0;" edge="1" parent="1" source="jpNTwZRYoK0DRIR-71cp-11" target="jpNTwZRYoK0DRIR-71cp-132">
          <mxGeometry width="50" height="50" relative="1" as="geometry">
            <mxPoint x="180" y="-228" as="sourcePoint" />
            <mxPoint x="230" y="-278" as="targetPoint" />
          </mxGeometry>
        </mxCell>
        <mxCell id="jpNTwZRYoK0DRIR-71cp-134" value="" style="endArrow=none;html=1;rounded=0;exitX=0.984;exitY=0.5;exitDx=0;exitDy=0;exitPerimeter=0;entryX=0.002;entryY=0.624;entryDx=0;entryDy=0;entryPerimeter=0;" edge="1" parent="1" source="jpNTwZRYoK0DRIR-71cp-132" target="jpNTwZRYoK0DRIR-71cp-13">
          <mxGeometry width="50" height="50" relative="1" as="geometry">
            <mxPoint x="180" y="-298" as="sourcePoint" />
            <mxPoint x="230" y="-348" as="targetPoint" />
          </mxGeometry>
        </mxCell>
        <mxCell id="jpNTwZRYoK0DRIR-71cp-135" value="1" style="text;html=1;align=center;verticalAlign=middle;resizable=0;points=[];autosize=1;strokeColor=none;fillColor=none;" vertex="1" parent="1">
          <mxGeometry y="-568" width="30" height="30" as="geometry" />
        </mxCell>
        <mxCell id="jpNTwZRYoK0DRIR-71cp-136" value="1" style="text;html=1;align=center;verticalAlign=middle;resizable=0;points=[];autosize=1;strokeColor=none;fillColor=none;" vertex="1" parent="1">
          <mxGeometry x="210" y="-568" width="30" height="30" as="geometry" />
        </mxCell>
        <mxCell id="jpNTwZRYoK0DRIR-71cp-137" value="" style="endArrow=none;html=1;rounded=0;entryX=0;entryY=0;entryDx=0;entryDy=0;exitX=1;exitY=1;exitDx=0;exitDy=0;" edge="1" parent="1" source="jpNTwZRYoK0DRIR-71cp-39" target="jpNTwZRYoK0DRIR-71cp-13">
          <mxGeometry width="50" height="50" relative="1" as="geometry">
            <mxPoint x="150" y="-318" as="sourcePoint" />
            <mxPoint x="200" y="-368" as="targetPoint" />
          </mxGeometry>
        </mxCell>
        <mxCell id="jpNTwZRYoK0DRIR-71cp-138" value="" style="endArrow=none;html=1;rounded=0;entryX=0.25;entryY=0;entryDx=0;entryDy=0;exitX=0.666;exitY=1.051;exitDx=0;exitDy=0;exitPerimeter=0;" edge="1" parent="1" source="jpNTwZRYoK0DRIR-71cp-40" target="jpNTwZRYoK0DRIR-71cp-13">
          <mxGeometry width="50" height="50" relative="1" as="geometry">
            <mxPoint x="150" y="-318" as="sourcePoint" />
            <mxPoint x="200" y="-368" as="targetPoint" />
          </mxGeometry>
        </mxCell>
        <mxCell id="jpNTwZRYoK0DRIR-71cp-139" value="" style="endArrow=none;html=1;rounded=0;" edge="1" parent="1" target="jpNTwZRYoK0DRIR-71cp-41">
          <mxGeometry width="50" height="50" relative="1" as="geometry">
            <mxPoint x="320" y="-578" as="sourcePoint" />
            <mxPoint x="200" y="-368" as="targetPoint" />
          </mxGeometry>
        </mxCell>
        <mxCell id="jpNTwZRYoK0DRIR-71cp-140" value="" style="endArrow=none;html=1;rounded=0;exitX=1;exitY=0;exitDx=0;exitDy=0;entryX=0.5;entryY=1;entryDx=0;entryDy=0;" edge="1" parent="1" source="jpNTwZRYoK0DRIR-71cp-13" target="jpNTwZRYoK0DRIR-71cp-46">
          <mxGeometry width="50" height="50" relative="1" as="geometry">
            <mxPoint x="150" y="-318" as="sourcePoint" />
            <mxPoint x="200" y="-368" as="targetPoint" />
          </mxGeometry>
        </mxCell>
        <mxCell id="jpNTwZRYoK0DRIR-71cp-141" value="" style="endArrow=none;html=1;rounded=0;exitX=0.5;exitY=0;exitDx=0;exitDy=0;" edge="1" parent="1" source="jpNTwZRYoK0DRIR-71cp-12">
          <mxGeometry width="50" height="50" relative="1" as="geometry">
            <mxPoint x="-100" y="-448" as="sourcePoint" />
            <mxPoint x="-240" y="-768" as="targetPoint" />
            <Array as="points">
              <mxPoint x="-415" y="-768" />
            </Array>
          </mxGeometry>
        </mxCell>
        <mxCell id="jpNTwZRYoK0DRIR-71cp-142" value="Issues&amp;nbsp;" style="html=1;whiteSpace=wrap;aspect=fixed;shape=isoRectangle;" vertex="1" parent="1">
          <mxGeometry x="-240.5" y="-796" width="95" height="57" as="geometry" />
        </mxCell>
        <mxCell id="jpNTwZRYoK0DRIR-71cp-143" value="" style="endArrow=none;html=1;rounded=0;entryX=0.359;entryY=0.017;entryDx=0;entryDy=0;entryPerimeter=0;" edge="1" parent="1" target="jpNTwZRYoK0DRIR-71cp-13">
          <mxGeometry width="50" height="50" relative="1" as="geometry">
            <mxPoint x="-150" y="-768" as="sourcePoint" />
            <mxPoint x="320" y="-450" as="targetPoint" />
            <Array as="points">
              <mxPoint x="293" y="-768" />
            </Array>
          </mxGeometry>
        </mxCell>
        <mxCell id="jpNTwZRYoK0DRIR-71cp-144" value="1" style="text;html=1;align=center;verticalAlign=middle;resizable=0;points=[];autosize=1;strokeColor=none;fillColor=none;" vertex="1" parent="1">
          <mxGeometry x="-325" y="-826" width="30" height="30" as="geometry" />
        </mxCell>
        <mxCell id="jpNTwZRYoK0DRIR-71cp-147" value="" style="shape=link;html=1;rounded=0;exitX=0.9;exitY=0.005;exitDx=0;exitDy=0;exitPerimeter=0;" edge="1" parent="1" source="jpNTwZRYoK0DRIR-71cp-14">
          <mxGeometry width="100" relative="1" as="geometry">
            <mxPoint x="-20" y="-298" as="sourcePoint" />
            <mxPoint x="210" y="-328" as="targetPoint" />
            <Array as="points">
              <mxPoint x="-20" y="-328" />
            </Array>
          </mxGeometry>
        </mxCell>
        <mxCell id="jpNTwZRYoK0DRIR-71cp-148" value="Generates&amp;nbsp;" style="html=1;whiteSpace=wrap;aspect=fixed;shape=isoRectangle;rotation=0;" vertex="1" parent="1">
          <mxGeometry x="210" y="-349" width="70" height="42" as="geometry" />
        </mxCell>
        <mxCell id="jpNTwZRYoK0DRIR-71cp-149" value="" style="endArrow=none;html=1;rounded=0;entryX=0.801;entryY=1.026;entryDx=0;entryDy=0;entryPerimeter=0;" edge="1" parent="1" target="jpNTwZRYoK0DRIR-71cp-13">
          <mxGeometry width="50" height="50" relative="1" as="geometry">
            <mxPoint x="280" y="-328" as="sourcePoint" />
            <mxPoint x="90" y="-408" as="targetPoint" />
            <Array as="points">
              <mxPoint x="346" y="-328" />
            </Array>
          </mxGeometry>
        </mxCell>
        <mxCell id="jpNTwZRYoK0DRIR-71cp-150" value="M" style="text;html=1;align=center;verticalAlign=middle;resizable=0;points=[];autosize=1;strokeColor=none;fillColor=none;" vertex="1" parent="1">
          <mxGeometry x="70" y="-352" width="30" height="30" as="geometry" />
        </mxCell>
        <mxCell id="jpNTwZRYoK0DRIR-71cp-151" value="1" style="text;html=1;align=center;verticalAlign=middle;resizable=0;points=[];autosize=1;strokeColor=none;fillColor=none;" vertex="1" parent="1">
          <mxGeometry x="300" y="-358" width="30" height="30" as="geometry" />
        </mxCell>
        <mxCell id="jpNTwZRYoK0DRIR-71cp-153" value="M" style="text;html=1;align=center;verticalAlign=middle;resizable=0;points=[];autosize=1;strokeColor=none;fillColor=none;" vertex="1" parent="1">
          <mxGeometry x="87.5" y="-808" width="30" height="30" as="geometry" />
        </mxCell>
        <mxCell id="jpNTwZRYoK0DRIR-71cp-154" value="1" style="text;html=1;align=center;verticalAlign=middle;resizable=0;points=[];autosize=1;strokeColor=none;fillColor=none;" vertex="1" parent="1">
          <mxGeometry x="35" y="-910" width="30" height="30" as="geometry" />
        </mxCell>
        <mxCell id="jpNTwZRYoK0DRIR-71cp-155" value="M" style="text;html=1;align=center;verticalAlign=middle;resizable=0;points=[];autosize=1;strokeColor=none;fillColor=none;" vertex="1" parent="1">
          <mxGeometry x="500" y="-548" width="30" height="30" as="geometry" />
        </mxCell>
        <mxCell id="jpNTwZRYoK0DRIR-71cp-156" value="Expire Date" style="ellipse;whiteSpace=wrap;html=1;" vertex="1" parent="1">
          <mxGeometry x="360" y="-758" width="60" height="40" as="geometry" />
        </mxCell>
        <mxCell id="jpNTwZRYoK0DRIR-71cp-157" value="" style="endArrow=none;html=1;rounded=0;entryX=0.822;entryY=-0.03;entryDx=0;entryDy=0;entryPerimeter=0;exitX=0.382;exitY=0.968;exitDx=0;exitDy=0;exitPerimeter=0;" edge="1" parent="1" source="jpNTwZRYoK0DRIR-71cp-156" target="jpNTwZRYoK0DRIR-71cp-13">
          <mxGeometry width="50" height="50" relative="1" as="geometry">
            <mxPoint x="50" y="-548" as="sourcePoint" />
            <mxPoint x="100" y="-598" as="targetPoint" />
          </mxGeometry>
        </mxCell>
        <mxCell id="jpNTwZRYoK0DRIR-71cp-213" value="Books " style="shape=table;startSize=30;container=1;collapsible=0;childLayout=tableLayout;fixedRows=1;rowLines=0;fontStyle=0;strokeColor=default;fontSize=16;" vertex="1" parent="1">
          <mxGeometry x="141.25" y="80" width="255" height="240" as="geometry" />
        </mxCell>
        <mxCell id="jpNTwZRYoK0DRIR-71cp-214" value="" style="shape=tableRow;horizontal=0;startSize=0;swimlaneHead=0;swimlaneBody=0;top=0;left=0;bottom=0;right=0;collapsible=0;dropTarget=0;fillColor=none;points=[[0,0.5],[1,0.5]];portConstraint=eastwest;strokeColor=inherit;fontSize=16;" vertex="1" parent="jpNTwZRYoK0DRIR-71cp-213">
          <mxGeometry y="30" width="255" height="30" as="geometry" />
        </mxCell>
        <mxCell id="jpNTwZRYoK0DRIR-71cp-215" value="PK" style="shape=partialRectangle;html=1;whiteSpace=wrap;connectable=0;fillColor=none;top=0;left=0;bottom=0;right=0;overflow=hidden;pointerEvents=1;strokeColor=inherit;fontSize=16;" vertex="1" parent="jpNTwZRYoK0DRIR-71cp-214">
          <mxGeometry width="57" height="30" as="geometry">
            <mxRectangle width="57" height="30" as="alternateBounds" />
          </mxGeometry>
        </mxCell>
        <mxCell id="jpNTwZRYoK0DRIR-71cp-216" value="ISBN&amp;nbsp;" style="shape=partialRectangle;html=1;whiteSpace=wrap;connectable=0;fillColor=none;top=0;left=0;bottom=0;right=0;align=left;spacingLeft=6;overflow=hidden;strokeColor=inherit;fontSize=16;perimeterSpacing=4;" vertex="1" parent="jpNTwZRYoK0DRIR-71cp-214">
          <mxGeometry x="57" width="198" height="30" as="geometry">
            <mxRectangle width="198" height="30" as="alternateBounds" />
          </mxGeometry>
        </mxCell>
        <mxCell id="jpNTwZRYoK0DRIR-71cp-217" value="" style="shape=tableRow;horizontal=0;startSize=0;swimlaneHead=0;swimlaneBody=0;top=0;left=0;bottom=0;right=0;collapsible=0;dropTarget=0;fillColor=none;points=[[0,0.5],[1,0.5]];portConstraint=eastwest;strokeColor=inherit;fontSize=16;" vertex="1" parent="jpNTwZRYoK0DRIR-71cp-213">
          <mxGeometry y="60" width="255" height="30" as="geometry" />
        </mxCell>
        <mxCell id="jpNTwZRYoK0DRIR-71cp-218" value="" style="shape=partialRectangle;html=1;whiteSpace=wrap;connectable=0;fillColor=none;top=0;left=0;bottom=0;right=0;overflow=hidden;strokeColor=inherit;fontSize=16;" vertex="1" parent="jpNTwZRYoK0DRIR-71cp-217">
          <mxGeometry width="57" height="30" as="geometry">
            <mxRectangle width="57" height="30" as="alternateBounds" />
          </mxGeometry>
        </mxCell>
        <mxCell id="jpNTwZRYoK0DRIR-71cp-219" value="Title&amp;nbsp;" style="shape=partialRectangle;html=1;whiteSpace=wrap;connectable=0;fillColor=none;top=0;left=0;bottom=0;right=0;align=left;spacingLeft=6;overflow=hidden;strokeColor=inherit;fontSize=16;gradientColor=none;" vertex="1" parent="jpNTwZRYoK0DRIR-71cp-217">
          <mxGeometry x="57" width="198" height="30" as="geometry">
            <mxRectangle width="198" height="30" as="alternateBounds" />
          </mxGeometry>
        </mxCell>
        <mxCell id="jpNTwZRYoK0DRIR-71cp-220" value="" style="shape=tableRow;horizontal=0;startSize=0;swimlaneHead=0;swimlaneBody=0;top=0;left=0;bottom=0;right=0;collapsible=0;dropTarget=0;fillColor=none;points=[[0,0.5],[1,0.5]];portConstraint=eastwest;strokeColor=inherit;fontSize=16;" vertex="1" parent="jpNTwZRYoK0DRIR-71cp-213">
          <mxGeometry y="90" width="255" height="30" as="geometry" />
        </mxCell>
        <mxCell id="jpNTwZRYoK0DRIR-71cp-221" value="" style="shape=partialRectangle;html=1;whiteSpace=wrap;connectable=0;fillColor=none;top=0;left=0;bottom=0;right=0;overflow=hidden;strokeColor=inherit;fontSize=16;" vertex="1" parent="jpNTwZRYoK0DRIR-71cp-220">
          <mxGeometry width="57" height="30" as="geometry">
            <mxRectangle width="57" height="30" as="alternateBounds" />
          </mxGeometry>
        </mxCell>
        <mxCell id="jpNTwZRYoK0DRIR-71cp-222" value="Author&amp;nbsp;" style="shape=partialRectangle;html=1;whiteSpace=wrap;connectable=0;fillColor=none;top=0;left=0;bottom=0;right=0;align=left;spacingLeft=6;overflow=hidden;strokeColor=inherit;fontSize=16;" vertex="1" parent="jpNTwZRYoK0DRIR-71cp-220">
          <mxGeometry x="57" width="198" height="30" as="geometry">
            <mxRectangle width="198" height="30" as="alternateBounds" />
          </mxGeometry>
        </mxCell>
        <mxCell id="jpNTwZRYoK0DRIR-71cp-238" style="shape=tableRow;horizontal=0;startSize=0;swimlaneHead=0;swimlaneBody=0;top=0;left=0;bottom=0;right=0;collapsible=0;dropTarget=0;fillColor=none;points=[[0,0.5],[1,0.5]];portConstraint=eastwest;strokeColor=inherit;fontSize=16;" vertex="1" parent="jpNTwZRYoK0DRIR-71cp-213">
          <mxGeometry y="120" width="255" height="30" as="geometry" />
        </mxCell>
        <mxCell id="jpNTwZRYoK0DRIR-71cp-239" style="shape=partialRectangle;html=1;whiteSpace=wrap;connectable=0;fillColor=none;top=0;left=0;bottom=0;right=0;overflow=hidden;strokeColor=inherit;fontSize=16;" vertex="1" parent="jpNTwZRYoK0DRIR-71cp-238">
          <mxGeometry width="57" height="30" as="geometry">
            <mxRectangle width="57" height="30" as="alternateBounds" />
          </mxGeometry>
        </mxCell>
        <mxCell id="jpNTwZRYoK0DRIR-71cp-240" value="&lt;span style=&quot;color: rgb(255, 255, 255); font-family: Helvetica; font-size: 16px; font-style: normal; font-variant-ligatures: normal; font-variant-caps: normal; font-weight: 400; letter-spacing: normal; orphans: 2; text-align: left; text-indent: 0px; text-transform: none; widows: 2; word-spacing: 0px; -webkit-text-stroke-width: 0px; white-space: normal; background-color: rgb(27, 29, 30); text-decoration-thickness: initial; text-decoration-style: initial; text-decoration-color: initial; display: inline !important; float: none;&quot;&gt;Copies&amp;nbsp;&lt;/span&gt;&lt;div&gt;&lt;br/&gt;&lt;/div&gt;" style="shape=partialRectangle;html=1;whiteSpace=wrap;connectable=0;fillColor=none;top=0;left=0;bottom=0;right=0;align=left;spacingLeft=6;overflow=hidden;strokeColor=inherit;fontSize=16;" vertex="1" parent="jpNTwZRYoK0DRIR-71cp-238">
          <mxGeometry x="57" width="198" height="30" as="geometry">
            <mxRectangle width="198" height="30" as="alternateBounds" />
          </mxGeometry>
        </mxCell>
        <mxCell id="jpNTwZRYoK0DRIR-71cp-235" style="shape=tableRow;horizontal=0;startSize=0;swimlaneHead=0;swimlaneBody=0;top=0;left=0;bottom=0;right=0;collapsible=0;dropTarget=0;fillColor=none;points=[[0,0.5],[1,0.5]];portConstraint=eastwest;strokeColor=inherit;fontSize=16;" vertex="1" parent="jpNTwZRYoK0DRIR-71cp-213">
          <mxGeometry y="150" width="255" height="30" as="geometry" />
        </mxCell>
        <mxCell id="jpNTwZRYoK0DRIR-71cp-236" style="shape=partialRectangle;html=1;whiteSpace=wrap;connectable=0;fillColor=none;top=0;left=0;bottom=0;right=0;overflow=hidden;strokeColor=inherit;fontSize=16;" vertex="1" parent="jpNTwZRYoK0DRIR-71cp-235">
          <mxGeometry width="57" height="30" as="geometry">
            <mxRectangle width="57" height="30" as="alternateBounds" />
          </mxGeometry>
        </mxCell>
        <mxCell id="jpNTwZRYoK0DRIR-71cp-237" value="Availble copies&amp;nbsp;" style="shape=partialRectangle;html=1;whiteSpace=wrap;connectable=0;fillColor=none;top=0;left=0;bottom=0;right=0;align=left;spacingLeft=6;overflow=hidden;strokeColor=inherit;fontSize=16;" vertex="1" parent="jpNTwZRYoK0DRIR-71cp-235">
          <mxGeometry x="57" width="198" height="30" as="geometry">
            <mxRectangle width="198" height="30" as="alternateBounds" />
          </mxGeometry>
        </mxCell>
        <mxCell id="jpNTwZRYoK0DRIR-71cp-406" style="shape=tableRow;horizontal=0;startSize=0;swimlaneHead=0;swimlaneBody=0;top=0;left=0;bottom=0;right=0;collapsible=0;dropTarget=0;fillColor=none;points=[[0,0.5],[1,0.5]];portConstraint=eastwest;strokeColor=inherit;fontSize=16;" vertex="1" parent="jpNTwZRYoK0DRIR-71cp-213">
          <mxGeometry y="180" width="255" height="30" as="geometry" />
        </mxCell>
        <mxCell id="jpNTwZRYoK0DRIR-71cp-407" style="shape=partialRectangle;html=1;whiteSpace=wrap;connectable=0;fillColor=none;top=0;left=0;bottom=0;right=0;overflow=hidden;strokeColor=inherit;fontSize=16;" vertex="1" parent="jpNTwZRYoK0DRIR-71cp-406">
          <mxGeometry width="57" height="30" as="geometry">
            <mxRectangle width="57" height="30" as="alternateBounds" />
          </mxGeometry>
        </mxCell>
        <mxCell id="jpNTwZRYoK0DRIR-71cp-408" value="Lending/Non Lending" style="shape=partialRectangle;html=1;whiteSpace=wrap;connectable=0;fillColor=none;top=0;left=0;bottom=0;right=0;align=left;spacingLeft=6;overflow=hidden;strokeColor=inherit;fontSize=16;" vertex="1" parent="jpNTwZRYoK0DRIR-71cp-406">
          <mxGeometry x="57" width="198" height="30" as="geometry">
            <mxRectangle width="198" height="30" as="alternateBounds" />
          </mxGeometry>
        </mxCell>
        <mxCell id="jpNTwZRYoK0DRIR-71cp-229" style="shape=tableRow;horizontal=0;startSize=0;swimlaneHead=0;swimlaneBody=0;top=0;left=0;bottom=0;right=0;collapsible=0;dropTarget=0;fillColor=none;points=[[0,0.5],[1,0.5]];portConstraint=eastwest;strokeColor=inherit;fontSize=16;" vertex="1" parent="jpNTwZRYoK0DRIR-71cp-213">
          <mxGeometry y="210" width="255" height="30" as="geometry" />
        </mxCell>
        <mxCell id="jpNTwZRYoK0DRIR-71cp-230" style="shape=partialRectangle;html=1;whiteSpace=wrap;connectable=0;fillColor=none;top=0;left=0;bottom=0;right=0;overflow=hidden;strokeColor=inherit;fontSize=16;" vertex="1" parent="jpNTwZRYoK0DRIR-71cp-229">
          <mxGeometry width="57" height="30" as="geometry">
            <mxRectangle width="57" height="30" as="alternateBounds" />
          </mxGeometry>
        </mxCell>
        <mxCell id="jpNTwZRYoK0DRIR-71cp-231" value="Edition&amp;nbsp;" style="shape=partialRectangle;html=1;whiteSpace=wrap;connectable=0;fillColor=none;top=0;left=0;bottom=0;right=0;align=left;spacingLeft=6;overflow=hidden;strokeColor=inherit;fontSize=16;" vertex="1" parent="jpNTwZRYoK0DRIR-71cp-229">
          <mxGeometry x="57" width="198" height="30" as="geometry">
            <mxRectangle width="198" height="30" as="alternateBounds" />
          </mxGeometry>
        </mxCell>
        <mxCell id="jpNTwZRYoK0DRIR-71cp-242" value="Students" style="shape=table;startSize=30;container=1;collapsible=0;childLayout=tableLayout;fixedRows=1;rowLines=0;fontStyle=0;strokeColor=default;fontSize=16;" vertex="1" parent="1">
          <mxGeometry x="-546.25" y="310" width="180" height="180" as="geometry" />
        </mxCell>
        <mxCell id="jpNTwZRYoK0DRIR-71cp-243" value="" style="shape=tableRow;horizontal=0;startSize=0;swimlaneHead=0;swimlaneBody=0;top=0;left=0;bottom=0;right=0;collapsible=0;dropTarget=0;fillColor=none;points=[[0,0.5],[1,0.5]];portConstraint=eastwest;strokeColor=inherit;fontSize=16;" vertex="1" parent="jpNTwZRYoK0DRIR-71cp-242">
          <mxGeometry y="30" width="180" height="30" as="geometry" />
        </mxCell>
        <mxCell id="jpNTwZRYoK0DRIR-71cp-244" value="PK" style="shape=partialRectangle;html=1;whiteSpace=wrap;connectable=0;fillColor=none;top=0;left=0;bottom=0;right=0;overflow=hidden;pointerEvents=1;strokeColor=inherit;fontSize=16;" vertex="1" parent="jpNTwZRYoK0DRIR-71cp-243">
          <mxGeometry width="40" height="30" as="geometry">
            <mxRectangle width="40" height="30" as="alternateBounds" />
          </mxGeometry>
        </mxCell>
        <mxCell id="jpNTwZRYoK0DRIR-71cp-245" value="USER_ID" style="shape=partialRectangle;html=1;whiteSpace=wrap;connectable=0;fillColor=none;top=0;left=0;bottom=0;right=0;align=left;spacingLeft=6;overflow=hidden;strokeColor=inherit;fontSize=16;perimeterSpacing=4;" vertex="1" parent="jpNTwZRYoK0DRIR-71cp-243">
          <mxGeometry x="40" width="140" height="30" as="geometry">
            <mxRectangle width="140" height="30" as="alternateBounds" />
          </mxGeometry>
        </mxCell>
        <mxCell id="jpNTwZRYoK0DRIR-71cp-353" style="shape=tableRow;horizontal=0;startSize=0;swimlaneHead=0;swimlaneBody=0;top=0;left=0;bottom=0;right=0;collapsible=0;dropTarget=0;fillColor=none;points=[[0,0.5],[1,0.5]];portConstraint=eastwest;strokeColor=inherit;fontSize=16;" vertex="1" parent="jpNTwZRYoK0DRIR-71cp-242">
          <mxGeometry y="60" width="180" height="30" as="geometry" />
        </mxCell>
        <mxCell id="jpNTwZRYoK0DRIR-71cp-354" value="" style="shape=partialRectangle;html=1;whiteSpace=wrap;connectable=0;fillColor=none;top=0;left=0;bottom=0;right=0;overflow=hidden;pointerEvents=1;strokeColor=inherit;fontSize=16;" vertex="1" parent="jpNTwZRYoK0DRIR-71cp-353">
          <mxGeometry width="40" height="30" as="geometry">
            <mxRectangle width="40" height="30" as="alternateBounds" />
          </mxGeometry>
        </mxCell>
        <mxCell id="jpNTwZRYoK0DRIR-71cp-355" value="Qualified Field&amp;nbsp;" style="shape=partialRectangle;html=1;whiteSpace=wrap;connectable=0;fillColor=none;top=0;left=0;bottom=0;right=0;align=left;spacingLeft=6;overflow=hidden;strokeColor=inherit;fontSize=16;perimeterSpacing=4;" vertex="1" parent="jpNTwZRYoK0DRIR-71cp-353">
          <mxGeometry x="40" width="140" height="30" as="geometry">
            <mxRectangle width="140" height="30" as="alternateBounds" />
          </mxGeometry>
        </mxCell>
        <mxCell id="jpNTwZRYoK0DRIR-71cp-246" value="" style="shape=tableRow;horizontal=0;startSize=0;swimlaneHead=0;swimlaneBody=0;top=0;left=0;bottom=0;right=0;collapsible=0;dropTarget=0;fillColor=none;points=[[0,0.5],[1,0.5]];portConstraint=eastwest;strokeColor=inherit;fontSize=16;" vertex="1" parent="jpNTwZRYoK0DRIR-71cp-242">
          <mxGeometry y="90" width="180" height="30" as="geometry" />
        </mxCell>
        <mxCell id="jpNTwZRYoK0DRIR-71cp-247" value="" style="shape=partialRectangle;html=1;whiteSpace=wrap;connectable=0;fillColor=none;top=0;left=0;bottom=0;right=0;overflow=hidden;strokeColor=inherit;fontSize=16;" vertex="1" parent="jpNTwZRYoK0DRIR-71cp-246">
          <mxGeometry width="40" height="30" as="geometry">
            <mxRectangle width="40" height="30" as="alternateBounds" />
          </mxGeometry>
        </mxCell>
        <mxCell id="jpNTwZRYoK0DRIR-71cp-248" value="Name&amp;nbsp;" style="shape=partialRectangle;html=1;whiteSpace=wrap;connectable=0;fillColor=none;top=0;left=0;bottom=0;right=0;align=left;spacingLeft=6;overflow=hidden;strokeColor=inherit;fontSize=16;gradientColor=none;" vertex="1" parent="jpNTwZRYoK0DRIR-71cp-246">
          <mxGeometry x="40" width="140" height="30" as="geometry">
            <mxRectangle width="140" height="30" as="alternateBounds" />
          </mxGeometry>
        </mxCell>
        <mxCell id="jpNTwZRYoK0DRIR-71cp-393" style="shape=tableRow;horizontal=0;startSize=0;swimlaneHead=0;swimlaneBody=0;top=0;left=0;bottom=0;right=0;collapsible=0;dropTarget=0;fillColor=none;points=[[0,0.5],[1,0.5]];portConstraint=eastwest;strokeColor=inherit;fontSize=16;" vertex="1" parent="jpNTwZRYoK0DRIR-71cp-242">
          <mxGeometry y="120" width="180" height="30" as="geometry" />
        </mxCell>
        <mxCell id="jpNTwZRYoK0DRIR-71cp-394" style="shape=partialRectangle;html=1;whiteSpace=wrap;connectable=0;fillColor=none;top=0;left=0;bottom=0;right=0;overflow=hidden;strokeColor=inherit;fontSize=16;" vertex="1" parent="jpNTwZRYoK0DRIR-71cp-393">
          <mxGeometry width="40" height="30" as="geometry">
            <mxRectangle width="40" height="30" as="alternateBounds" />
          </mxGeometry>
        </mxCell>
        <mxCell id="jpNTwZRYoK0DRIR-71cp-395" value="Faculty" style="shape=partialRectangle;html=1;whiteSpace=wrap;connectable=0;fillColor=none;top=0;left=0;bottom=0;right=0;align=left;spacingLeft=6;overflow=hidden;strokeColor=inherit;fontSize=16;gradientColor=none;" vertex="1" parent="jpNTwZRYoK0DRIR-71cp-393">
          <mxGeometry x="40" width="140" height="30" as="geometry">
            <mxRectangle width="140" height="30" as="alternateBounds" />
          </mxGeometry>
        </mxCell>
        <mxCell id="jpNTwZRYoK0DRIR-71cp-396" style="shape=tableRow;horizontal=0;startSize=0;swimlaneHead=0;swimlaneBody=0;top=0;left=0;bottom=0;right=0;collapsible=0;dropTarget=0;fillColor=none;points=[[0,0.5],[1,0.5]];portConstraint=eastwest;strokeColor=inherit;fontSize=16;" vertex="1" parent="jpNTwZRYoK0DRIR-71cp-242">
          <mxGeometry y="150" width="180" height="30" as="geometry" />
        </mxCell>
        <mxCell id="jpNTwZRYoK0DRIR-71cp-397" style="shape=partialRectangle;html=1;whiteSpace=wrap;connectable=0;fillColor=none;top=0;left=0;bottom=0;right=0;overflow=hidden;strokeColor=inherit;fontSize=16;" vertex="1" parent="jpNTwZRYoK0DRIR-71cp-396">
          <mxGeometry width="40" height="30" as="geometry">
            <mxRectangle width="40" height="30" as="alternateBounds" />
          </mxGeometry>
        </mxCell>
        <mxCell id="jpNTwZRYoK0DRIR-71cp-398" value="Course" style="shape=partialRectangle;html=1;whiteSpace=wrap;connectable=0;fillColor=none;top=0;left=0;bottom=0;right=0;align=left;spacingLeft=6;overflow=hidden;strokeColor=inherit;fontSize=16;gradientColor=none;" vertex="1" parent="jpNTwZRYoK0DRIR-71cp-396">
          <mxGeometry x="40" width="140" height="30" as="geometry">
            <mxRectangle width="140" height="30" as="alternateBounds" />
          </mxGeometry>
        </mxCell>
        <mxCell id="jpNTwZRYoK0DRIR-71cp-261" value="Lecture " style="shape=table;startSize=30;container=1;collapsible=0;childLayout=tableLayout;fixedRows=1;rowLines=0;fontStyle=0;strokeColor=default;fontSize=16;" vertex="1" parent="1">
          <mxGeometry x="-546.25" y="100" width="180" height="120" as="geometry" />
        </mxCell>
        <mxCell id="jpNTwZRYoK0DRIR-71cp-262" value="" style="shape=tableRow;horizontal=0;startSize=0;swimlaneHead=0;swimlaneBody=0;top=0;left=0;bottom=0;right=0;collapsible=0;dropTarget=0;fillColor=none;points=[[0,0.5],[1,0.5]];portConstraint=eastwest;strokeColor=inherit;fontSize=16;" vertex="1" parent="jpNTwZRYoK0DRIR-71cp-261">
          <mxGeometry y="30" width="180" height="30" as="geometry" />
        </mxCell>
        <mxCell id="jpNTwZRYoK0DRIR-71cp-263" value="PK" style="shape=partialRectangle;html=1;whiteSpace=wrap;connectable=0;fillColor=none;top=0;left=0;bottom=0;right=0;overflow=hidden;pointerEvents=1;strokeColor=inherit;fontSize=16;" vertex="1" parent="jpNTwZRYoK0DRIR-71cp-262">
          <mxGeometry width="40" height="30" as="geometry">
            <mxRectangle width="40" height="30" as="alternateBounds" />
          </mxGeometry>
        </mxCell>
        <mxCell id="jpNTwZRYoK0DRIR-71cp-264" value="USER_ID" style="shape=partialRectangle;html=1;whiteSpace=wrap;connectable=0;fillColor=none;top=0;left=0;bottom=0;right=0;align=left;spacingLeft=6;overflow=hidden;strokeColor=inherit;fontSize=16;perimeterSpacing=4;" vertex="1" parent="jpNTwZRYoK0DRIR-71cp-262">
          <mxGeometry x="40" width="140" height="30" as="geometry">
            <mxRectangle width="140" height="30" as="alternateBounds" />
          </mxGeometry>
        </mxCell>
        <mxCell id="jpNTwZRYoK0DRIR-71cp-265" value="" style="shape=tableRow;horizontal=0;startSize=0;swimlaneHead=0;swimlaneBody=0;top=0;left=0;bottom=0;right=0;collapsible=0;dropTarget=0;fillColor=none;points=[[0,0.5],[1,0.5]];portConstraint=eastwest;strokeColor=inherit;fontSize=16;" vertex="1" parent="jpNTwZRYoK0DRIR-71cp-261">
          <mxGeometry y="60" width="180" height="30" as="geometry" />
        </mxCell>
        <mxCell id="jpNTwZRYoK0DRIR-71cp-266" value="" style="shape=partialRectangle;html=1;whiteSpace=wrap;connectable=0;fillColor=none;top=0;left=0;bottom=0;right=0;overflow=hidden;strokeColor=inherit;fontSize=16;" vertex="1" parent="jpNTwZRYoK0DRIR-71cp-265">
          <mxGeometry width="40" height="30" as="geometry">
            <mxRectangle width="40" height="30" as="alternateBounds" />
          </mxGeometry>
        </mxCell>
        <mxCell id="jpNTwZRYoK0DRIR-71cp-267" value="Name&amp;nbsp;" style="shape=partialRectangle;html=1;whiteSpace=wrap;connectable=0;fillColor=none;top=0;left=0;bottom=0;right=0;align=left;spacingLeft=6;overflow=hidden;strokeColor=inherit;fontSize=16;gradientColor=none;" vertex="1" parent="jpNTwZRYoK0DRIR-71cp-265">
          <mxGeometry x="40" width="140" height="30" as="geometry">
            <mxRectangle width="140" height="30" as="alternateBounds" />
          </mxGeometry>
        </mxCell>
        <mxCell id="jpNTwZRYoK0DRIR-71cp-268" value="" style="shape=tableRow;horizontal=0;startSize=0;swimlaneHead=0;swimlaneBody=0;top=0;left=0;bottom=0;right=0;collapsible=0;dropTarget=0;fillColor=none;points=[[0,0.5],[1,0.5]];portConstraint=eastwest;strokeColor=inherit;fontSize=16;" vertex="1" parent="jpNTwZRYoK0DRIR-71cp-261">
          <mxGeometry y="90" width="180" height="30" as="geometry" />
        </mxCell>
        <mxCell id="jpNTwZRYoK0DRIR-71cp-269" value="FK" style="shape=partialRectangle;html=1;whiteSpace=wrap;connectable=0;fillColor=none;top=0;left=0;bottom=0;right=0;overflow=hidden;strokeColor=inherit;fontSize=16;" vertex="1" parent="jpNTwZRYoK0DRIR-71cp-268">
          <mxGeometry width="40" height="30" as="geometry">
            <mxRectangle width="40" height="30" as="alternateBounds" />
          </mxGeometry>
        </mxCell>
        <mxCell id="jpNTwZRYoK0DRIR-71cp-270" value="Qualified Field" style="shape=partialRectangle;html=1;whiteSpace=wrap;connectable=0;fillColor=none;top=0;left=0;bottom=0;right=0;align=left;spacingLeft=6;overflow=hidden;strokeColor=inherit;fontSize=16;" vertex="1" parent="jpNTwZRYoK0DRIR-71cp-268">
          <mxGeometry x="40" width="140" height="30" as="geometry">
            <mxRectangle width="140" height="30" as="alternateBounds" />
          </mxGeometry>
        </mxCell>
        <mxCell id="jpNTwZRYoK0DRIR-71cp-275" value="Request" style="shape=table;startSize=30;container=1;collapsible=0;childLayout=tableLayout;fixedRows=1;rowLines=0;fontStyle=0;strokeColor=default;fontSize=16;" vertex="1" parent="1">
          <mxGeometry x="-176.25" y="220" width="180" height="180" as="geometry" />
        </mxCell>
        <mxCell id="jpNTwZRYoK0DRIR-71cp-276" value="" style="shape=tableRow;horizontal=0;startSize=0;swimlaneHead=0;swimlaneBody=0;top=0;left=0;bottom=0;right=0;collapsible=0;dropTarget=0;fillColor=none;points=[[0,0.5],[1,0.5]];portConstraint=eastwest;strokeColor=inherit;fontSize=16;" vertex="1" parent="jpNTwZRYoK0DRIR-71cp-275">
          <mxGeometry y="30" width="180" height="30" as="geometry" />
        </mxCell>
        <mxCell id="jpNTwZRYoK0DRIR-71cp-277" value="PK" style="shape=partialRectangle;html=1;whiteSpace=wrap;connectable=0;fillColor=none;top=0;left=0;bottom=0;right=0;overflow=hidden;pointerEvents=1;strokeColor=inherit;fontSize=16;" vertex="1" parent="jpNTwZRYoK0DRIR-71cp-276">
          <mxGeometry width="40" height="30" as="geometry">
            <mxRectangle width="40" height="30" as="alternateBounds" />
          </mxGeometry>
        </mxCell>
        <mxCell id="jpNTwZRYoK0DRIR-71cp-278" value="REQ_ID" style="shape=partialRectangle;html=1;whiteSpace=wrap;connectable=0;fillColor=none;top=0;left=0;bottom=0;right=0;align=left;spacingLeft=6;overflow=hidden;strokeColor=inherit;fontSize=16;perimeterSpacing=4;" vertex="1" parent="jpNTwZRYoK0DRIR-71cp-276">
          <mxGeometry x="40" width="140" height="30" as="geometry">
            <mxRectangle width="140" height="30" as="alternateBounds" />
          </mxGeometry>
        </mxCell>
        <mxCell id="jpNTwZRYoK0DRIR-71cp-374" style="shape=tableRow;horizontal=0;startSize=0;swimlaneHead=0;swimlaneBody=0;top=0;left=0;bottom=0;right=0;collapsible=0;dropTarget=0;fillColor=none;points=[[0,0.5],[1,0.5]];portConstraint=eastwest;strokeColor=inherit;fontSize=16;" vertex="1" parent="jpNTwZRYoK0DRIR-71cp-275">
          <mxGeometry y="60" width="180" height="30" as="geometry" />
        </mxCell>
        <mxCell id="jpNTwZRYoK0DRIR-71cp-375" value="FK" style="shape=partialRectangle;html=1;whiteSpace=wrap;connectable=0;fillColor=none;top=0;left=0;bottom=0;right=0;overflow=hidden;pointerEvents=1;strokeColor=inherit;fontSize=16;" vertex="1" parent="jpNTwZRYoK0DRIR-71cp-374">
          <mxGeometry width="40" height="30" as="geometry">
            <mxRectangle width="40" height="30" as="alternateBounds" />
          </mxGeometry>
        </mxCell>
        <mxCell id="jpNTwZRYoK0DRIR-71cp-376" value="USER_ID" style="shape=partialRectangle;html=1;whiteSpace=wrap;connectable=0;fillColor=none;top=0;left=0;bottom=0;right=0;align=left;spacingLeft=6;overflow=hidden;strokeColor=inherit;fontSize=16;perimeterSpacing=4;" vertex="1" parent="jpNTwZRYoK0DRIR-71cp-374">
          <mxGeometry x="40" width="140" height="30" as="geometry">
            <mxRectangle width="140" height="30" as="alternateBounds" />
          </mxGeometry>
        </mxCell>
        <mxCell id="jpNTwZRYoK0DRIR-71cp-279" value="" style="shape=tableRow;horizontal=0;startSize=0;swimlaneHead=0;swimlaneBody=0;top=0;left=0;bottom=0;right=0;collapsible=0;dropTarget=0;fillColor=none;points=[[0,0.5],[1,0.5]];portConstraint=eastwest;strokeColor=inherit;fontSize=16;" vertex="1" parent="jpNTwZRYoK0DRIR-71cp-275">
          <mxGeometry y="90" width="180" height="30" as="geometry" />
        </mxCell>
        <mxCell id="jpNTwZRYoK0DRIR-71cp-280" value="FK" style="shape=partialRectangle;html=1;whiteSpace=wrap;connectable=0;fillColor=none;top=0;left=0;bottom=0;right=0;overflow=hidden;strokeColor=inherit;fontSize=16;" vertex="1" parent="jpNTwZRYoK0DRIR-71cp-279">
          <mxGeometry width="40" height="30" as="geometry">
            <mxRectangle width="40" height="30" as="alternateBounds" />
          </mxGeometry>
        </mxCell>
        <mxCell id="jpNTwZRYoK0DRIR-71cp-281" value="ISBN" style="shape=partialRectangle;html=1;whiteSpace=wrap;connectable=0;fillColor=none;top=0;left=0;bottom=0;right=0;align=left;spacingLeft=6;overflow=hidden;strokeColor=inherit;fontSize=16;gradientColor=none;" vertex="1" parent="jpNTwZRYoK0DRIR-71cp-279">
          <mxGeometry x="40" width="140" height="30" as="geometry">
            <mxRectangle width="140" height="30" as="alternateBounds" />
          </mxGeometry>
        </mxCell>
        <mxCell id="jpNTwZRYoK0DRIR-71cp-304" style="shape=tableRow;horizontal=0;startSize=0;swimlaneHead=0;swimlaneBody=0;top=0;left=0;bottom=0;right=0;collapsible=0;dropTarget=0;fillColor=none;points=[[0,0.5],[1,0.5]];portConstraint=eastwest;strokeColor=inherit;fontSize=16;" vertex="1" parent="jpNTwZRYoK0DRIR-71cp-275">
          <mxGeometry y="120" width="180" height="30" as="geometry" />
        </mxCell>
        <mxCell id="jpNTwZRYoK0DRIR-71cp-305" style="shape=partialRectangle;html=1;whiteSpace=wrap;connectable=0;fillColor=none;top=0;left=0;bottom=0;right=0;overflow=hidden;strokeColor=inherit;fontSize=16;" vertex="1" parent="jpNTwZRYoK0DRIR-71cp-304">
          <mxGeometry width="40" height="30" as="geometry">
            <mxRectangle width="40" height="30" as="alternateBounds" />
          </mxGeometry>
        </mxCell>
        <mxCell id="jpNTwZRYoK0DRIR-71cp-306" value="Date" style="shape=partialRectangle;html=1;whiteSpace=wrap;connectable=0;fillColor=none;top=0;left=0;bottom=0;right=0;align=left;spacingLeft=6;overflow=hidden;strokeColor=inherit;fontSize=16;gradientColor=none;" vertex="1" parent="jpNTwZRYoK0DRIR-71cp-304">
          <mxGeometry x="40" width="140" height="30" as="geometry">
            <mxRectangle width="140" height="30" as="alternateBounds" />
          </mxGeometry>
        </mxCell>
        <mxCell id="jpNTwZRYoK0DRIR-71cp-307" style="shape=tableRow;horizontal=0;startSize=0;swimlaneHead=0;swimlaneBody=0;top=0;left=0;bottom=0;right=0;collapsible=0;dropTarget=0;fillColor=none;points=[[0,0.5],[1,0.5]];portConstraint=eastwest;strokeColor=inherit;fontSize=16;" vertex="1" parent="jpNTwZRYoK0DRIR-71cp-275">
          <mxGeometry y="150" width="180" height="30" as="geometry" />
        </mxCell>
        <mxCell id="jpNTwZRYoK0DRIR-71cp-308" style="shape=partialRectangle;html=1;whiteSpace=wrap;connectable=0;fillColor=none;top=0;left=0;bottom=0;right=0;overflow=hidden;strokeColor=inherit;fontSize=16;" vertex="1" parent="jpNTwZRYoK0DRIR-71cp-307">
          <mxGeometry width="40" height="30" as="geometry">
            <mxRectangle width="40" height="30" as="alternateBounds" />
          </mxGeometry>
        </mxCell>
        <mxCell id="jpNTwZRYoK0DRIR-71cp-309" value="Type" style="shape=partialRectangle;html=1;whiteSpace=wrap;connectable=0;fillColor=none;top=0;left=0;bottom=0;right=0;align=left;spacingLeft=6;overflow=hidden;strokeColor=inherit;fontSize=16;gradientColor=none;" vertex="1" parent="jpNTwZRYoK0DRIR-71cp-307">
          <mxGeometry x="40" width="140" height="30" as="geometry">
            <mxRectangle width="140" height="30" as="alternateBounds" />
          </mxGeometry>
        </mxCell>
        <mxCell id="jpNTwZRYoK0DRIR-71cp-330" value="BookShop" style="shape=table;startSize=30;container=1;collapsible=0;childLayout=tableLayout;fixedRows=1;rowLines=0;fontStyle=0;strokeColor=default;fontSize=16;" vertex="1" parent="1">
          <mxGeometry x="153.75" y="370" width="180" height="150" as="geometry" />
        </mxCell>
        <mxCell id="jpNTwZRYoK0DRIR-71cp-331" value="" style="shape=tableRow;horizontal=0;startSize=0;swimlaneHead=0;swimlaneBody=0;top=0;left=0;bottom=0;right=0;collapsible=0;dropTarget=0;fillColor=none;points=[[0,0.5],[1,0.5]];portConstraint=eastwest;strokeColor=inherit;fontSize=16;" vertex="1" parent="jpNTwZRYoK0DRIR-71cp-330">
          <mxGeometry y="30" width="180" height="30" as="geometry" />
        </mxCell>
        <mxCell id="jpNTwZRYoK0DRIR-71cp-332" value="PK" style="shape=partialRectangle;html=1;whiteSpace=wrap;connectable=0;fillColor=none;top=0;left=0;bottom=0;right=0;overflow=hidden;pointerEvents=1;strokeColor=inherit;fontSize=16;" vertex="1" parent="jpNTwZRYoK0DRIR-71cp-331">
          <mxGeometry width="40" height="30" as="geometry">
            <mxRectangle width="40" height="30" as="alternateBounds" />
          </mxGeometry>
        </mxCell>
        <mxCell id="jpNTwZRYoK0DRIR-71cp-333" value="Bookshop_ID" style="shape=partialRectangle;html=1;whiteSpace=wrap;connectable=0;fillColor=none;top=0;left=0;bottom=0;right=0;align=left;spacingLeft=6;overflow=hidden;strokeColor=inherit;fontSize=16;perimeterSpacing=4;" vertex="1" parent="jpNTwZRYoK0DRIR-71cp-331">
          <mxGeometry x="40" width="140" height="30" as="geometry">
            <mxRectangle width="140" height="30" as="alternateBounds" />
          </mxGeometry>
        </mxCell>
        <mxCell id="jpNTwZRYoK0DRIR-71cp-334" value="" style="shape=tableRow;horizontal=0;startSize=0;swimlaneHead=0;swimlaneBody=0;top=0;left=0;bottom=0;right=0;collapsible=0;dropTarget=0;fillColor=none;points=[[0,0.5],[1,0.5]];portConstraint=eastwest;strokeColor=inherit;fontSize=16;" vertex="1" parent="jpNTwZRYoK0DRIR-71cp-330">
          <mxGeometry y="60" width="180" height="30" as="geometry" />
        </mxCell>
        <mxCell id="jpNTwZRYoK0DRIR-71cp-335" value="" style="shape=partialRectangle;html=1;whiteSpace=wrap;connectable=0;fillColor=none;top=0;left=0;bottom=0;right=0;overflow=hidden;strokeColor=inherit;fontSize=16;" vertex="1" parent="jpNTwZRYoK0DRIR-71cp-334">
          <mxGeometry width="40" height="30" as="geometry">
            <mxRectangle width="40" height="30" as="alternateBounds" />
          </mxGeometry>
        </mxCell>
        <mxCell id="jpNTwZRYoK0DRIR-71cp-336" value="Name&amp;nbsp;" style="shape=partialRectangle;html=1;whiteSpace=wrap;connectable=0;fillColor=none;top=0;left=0;bottom=0;right=0;align=left;spacingLeft=6;overflow=hidden;strokeColor=inherit;fontSize=16;gradientColor=none;" vertex="1" parent="jpNTwZRYoK0DRIR-71cp-334">
          <mxGeometry x="40" width="140" height="30" as="geometry">
            <mxRectangle width="140" height="30" as="alternateBounds" />
          </mxGeometry>
        </mxCell>
        <mxCell id="jpNTwZRYoK0DRIR-71cp-337" value="" style="shape=tableRow;horizontal=0;startSize=0;swimlaneHead=0;swimlaneBody=0;top=0;left=0;bottom=0;right=0;collapsible=0;dropTarget=0;fillColor=none;points=[[0,0.5],[1,0.5]];portConstraint=eastwest;strokeColor=inherit;fontSize=16;" vertex="1" parent="jpNTwZRYoK0DRIR-71cp-330">
          <mxGeometry y="90" width="180" height="30" as="geometry" />
        </mxCell>
        <mxCell id="jpNTwZRYoK0DRIR-71cp-338" value="" style="shape=partialRectangle;html=1;whiteSpace=wrap;connectable=0;fillColor=none;top=0;left=0;bottom=0;right=0;overflow=hidden;strokeColor=inherit;fontSize=16;" vertex="1" parent="jpNTwZRYoK0DRIR-71cp-337">
          <mxGeometry width="40" height="30" as="geometry">
            <mxRectangle width="40" height="30" as="alternateBounds" />
          </mxGeometry>
        </mxCell>
        <mxCell id="jpNTwZRYoK0DRIR-71cp-339" value="Qualified Fields&amp;nbsp;" style="shape=partialRectangle;html=1;whiteSpace=wrap;connectable=0;fillColor=none;top=0;left=0;bottom=0;right=0;align=left;spacingLeft=6;overflow=hidden;strokeColor=inherit;fontSize=16;" vertex="1" parent="jpNTwZRYoK0DRIR-71cp-337">
          <mxGeometry x="40" width="140" height="30" as="geometry">
            <mxRectangle width="140" height="30" as="alternateBounds" />
          </mxGeometry>
        </mxCell>
        <mxCell id="jpNTwZRYoK0DRIR-71cp-410" style="shape=tableRow;horizontal=0;startSize=0;swimlaneHead=0;swimlaneBody=0;top=0;left=0;bottom=0;right=0;collapsible=0;dropTarget=0;fillColor=none;points=[[0,0.5],[1,0.5]];portConstraint=eastwest;strokeColor=inherit;fontSize=16;" vertex="1" parent="jpNTwZRYoK0DRIR-71cp-330">
          <mxGeometry y="120" width="180" height="30" as="geometry" />
        </mxCell>
        <mxCell id="jpNTwZRYoK0DRIR-71cp-411" value="FK" style="shape=partialRectangle;html=1;whiteSpace=wrap;connectable=0;fillColor=none;top=0;left=0;bottom=0;right=0;overflow=hidden;strokeColor=inherit;fontSize=16;" vertex="1" parent="jpNTwZRYoK0DRIR-71cp-410">
          <mxGeometry width="40" height="30" as="geometry">
            <mxRectangle width="40" height="30" as="alternateBounds" />
          </mxGeometry>
        </mxCell>
        <mxCell id="jpNTwZRYoK0DRIR-71cp-412" value="ISBN" style="shape=partialRectangle;html=1;whiteSpace=wrap;connectable=0;fillColor=none;top=0;left=0;bottom=0;right=0;align=left;spacingLeft=6;overflow=hidden;strokeColor=inherit;fontSize=16;" vertex="1" parent="jpNTwZRYoK0DRIR-71cp-410">
          <mxGeometry x="40" width="140" height="30" as="geometry">
            <mxRectangle width="140" height="30" as="alternateBounds" />
          </mxGeometry>
        </mxCell>
        <mxCell id="jpNTwZRYoK0DRIR-71cp-401" value="" style="edgeStyle=entityRelationEdgeStyle;fontSize=12;html=1;endArrow=ERzeroToMany;startArrow=ERzeroToOne;rounded=0;entryX=-0.006;entryY=0.086;entryDx=0;entryDy=0;entryPerimeter=0;" edge="1" parent="1" target="jpNTwZRYoK0DRIR-71cp-275">
          <mxGeometry width="100" height="100" relative="1" as="geometry">
            <mxPoint x="-366.25" y="328" as="sourcePoint" />
            <mxPoint x="-166.25" y="100" as="targetPoint" />
          </mxGeometry>
        </mxCell>
        <mxCell id="jpNTwZRYoK0DRIR-71cp-405" value="" style="edgeStyle=entityRelationEdgeStyle;fontSize=12;html=1;endArrow=ERzeroToMany;startArrow=ERzeroToOne;rounded=0;entryX=-0.007;entryY=0.086;entryDx=0;entryDy=0;entryPerimeter=0;" edge="1" parent="1" target="jpNTwZRYoK0DRIR-71cp-275">
          <mxGeometry width="100" height="100" relative="1" as="geometry">
            <mxPoint x="-366.25" y="113" as="sourcePoint" />
            <mxPoint x="-177.25" y="20" as="targetPoint" />
            <Array as="points">
              <mxPoint x="-276.25" y="160" />
            </Array>
          </mxGeometry>
        </mxCell>
        <mxCell id="jpNTwZRYoK0DRIR-71cp-409" value="" style="edgeStyle=entityRelationEdgeStyle;fontSize=12;html=1;endArrow=ERzeroToMany;startArrow=ERmandOne;rounded=0;entryX=1.006;entryY=0.069;entryDx=0;entryDy=0;entryPerimeter=0;exitX=-0.004;exitY=0.075;exitDx=0;exitDy=0;exitPerimeter=0;" edge="1" parent="1" source="jpNTwZRYoK0DRIR-71cp-213" target="jpNTwZRYoK0DRIR-71cp-275">
          <mxGeometry width="100" height="100" relative="1" as="geometry">
            <mxPoint x="-146.25" y="170" as="sourcePoint" />
            <mxPoint x="-46.25" y="70" as="targetPoint" />
          </mxGeometry>
        </mxCell>
        <mxCell id="jpNTwZRYoK0DRIR-71cp-413" value="" style="edgeStyle=entityRelationEdgeStyle;fontSize=12;html=1;endArrow=ERzeroToMany;endFill=1;startArrow=ERzeroToMany;rounded=0;" edge="1" parent="1" target="jpNTwZRYoK0DRIR-71cp-213">
          <mxGeometry width="100" height="100" relative="1" as="geometry">
            <mxPoint x="333.75" y="440" as="sourcePoint" />
            <mxPoint x="433.75" y="340" as="targetPoint" />
          </mxGeometry>
        </mxCell>
      </root>
    </mxGraphModel>
  </diagram>
</mxfile>
